<svg width="28" height="28" viewBox="0 0 28 28" fill="none" xmlns="http://www.w3.org/2000/svg">
<g id="clear form" clip-path="url(#clip0_11_570)">
<path id="Vector" d="M0 13.0173C0.10434 12.8887 0.0394355 12.7081 0.0550453 12.5505C0.354098 9.53372 1.7138 6.62247 3.8236 4.4749L1.31205 1.90343C1.1198 1.67581 1.17978 1.48035 1.4624 1.3954C4.32969 1.035 7.17561 0.421412 10.0421 0.0733815C10.3452 0.0362692 10.9631 -0.163313 10.9376 0.307601L9.50148 9.57496C9.41275 9.78361 9.18189 9.75804 9.02415 9.63929L6.48631 7.14864C2.20839 11.5122 3.10143 18.9569 8.22722 22.2393C9.53599 23.0772 11.2588 23.6859 12.819 23.7774C13.2939 23.8055 13.9076 23.7098 14.3537 23.775C14.4334 23.7865 14.4424 23.7428 14.435 23.8574L13.8879 27.5629C6.66459 27.779 0.605499 22.2369 0.0509375 15.0255L0 14.9381V13.0173Z" fill="black"/>
<path id="Vector_2" d="M13.5601 4.23586L14.1065 0.448756C18.5405 0.291235 22.8341 2.44622 25.4146 6.03045C29.0386 11.0637 28.8299 17.8973 24.9315 22.7046C24.8272 22.8341 24.1617 23.5194 24.1716 23.5763L26.6823 26.109L26.7932 26.3812L26.6486 26.5684L17.2523 28.0001C17.0978 27.9762 17.0403 27.85 17.0568 27.7032L18.4929 18.4359C18.5816 18.2272 18.8125 18.2528 18.9702 18.3715L21.4333 20.8424C21.5434 20.8993 21.711 20.6758 21.789 20.5933C24.3416 17.8693 24.8905 13.4554 23.4108 10.0724C21.7044 6.17065 17.7945 3.91917 13.5593 4.23586H13.5601Z" fill="black"/>
</g>
<defs>
<clipPath id="clip0_11_570">
<rect width="28" height="28" fill="white"/>
</clipPath>
</defs>
</svg>
