<svg width="50" height="50" viewBox="0 0 50 50" fill="none" xmlns="http://www.w3.org/2000/svg">
<g id="gluten free" clip-path="url(#clip0_11_522)">
<path id="Vector" d="M49.9999 23.3236V26.163C49.1129 41.3705 36.4601 51.7813 21.3332 49.7457C-1.48145 46.6753 -7.75838 16.7469 11.1742 4.15172C27.0599 -6.41675 48.8309 4.35929 49.9989 23.3246L49.9999 23.3236ZM8.27612 39.5767C8.41907 39.6159 8.43865 39.5386 8.5209 39.4818C9.76532 38.6221 11.0714 36.5259 12.3462 35.677C13.1843 35.1189 14.227 35.3979 14.5746 36.3486C14.8311 37.0497 14.6265 37.4589 14.1878 38.0121C13.7492 38.5653 10.4595 41.5222 10.5221 41.7778C15.5987 46.171 22.2565 47.9618 28.8957 46.874C40.9806 44.8943 48.9454 32.4714 46.6495 20.5625C45.9455 16.9114 44.1273 13.3299 41.6316 10.603C40.2893 11.6135 39.2339 13.137 37.9346 14.2208C36.4748 15.4379 34.7594 14.2561 35.483 12.5485L39.3543 8.59196C39.4473 8.50874 39.4688 8.45782 39.4052 8.34229C39.322 8.19151 37.8876 7.1752 37.6213 6.9921C18.4341 -6.25716 -5.31066 15.3223 5.52097 35.4322C6.3111 36.8989 7.3176 38.2217 8.27515 39.5758L8.27612 39.5767Z" fill="black"/>
<path id="Vector_2" d="M22.1009 37.1287C17.2162 36.6372 14.4689 31.9179 14.138 27.3856C14.0361 25.9933 13.9607 25.1474 15.4568 24.79C15.5723 24.7626 15.6321 24.8625 15.6037 24.6461C14.8684 23.0306 14.2613 21.2456 14.138 19.4549C14.088 18.7244 14.0019 17.7062 14.6295 17.2078C15.3276 16.6536 16.8275 16.9493 17.6754 17.0854C18.5233 17.2215 19.3457 17.5025 20.1956 17.6435C19.9283 15.0792 21.0885 12.421 22.5591 10.3678C23.0369 9.70101 24.0806 8.26662 24.9383 8.24018C25.8625 8.21081 26.9072 9.66772 27.4085 10.3678C28.8791 12.42 30.0315 15.0783 29.772 17.6435C30.6209 17.5025 31.4394 17.2225 32.2922 17.0854C33.1401 16.9484 34.64 16.6536 35.3381 17.2078C35.9657 17.7062 35.8796 18.7244 35.8296 19.4549C35.7063 21.2456 35.0992 23.0306 34.3639 24.6461C34.3355 24.8634 34.3962 24.7626 34.5108 24.79C35.9422 25.1317 35.9119 25.8465 35.8345 27.1947C35.6309 30.7488 33.8274 34.8542 30.4525 36.3905C29.8925 36.645 28.4405 37.1277 27.8667 37.1277H26.45C26.2356 38.5631 27.2401 41.8881 24.9334 41.8343C22.7343 41.7834 23.7408 38.5386 23.5186 37.1277C23.0604 37.0954 22.5522 37.1728 22.1019 37.1277L22.1009 37.1287ZM24.9363 12.1625C22.9233 14.7101 22.1312 18.7421 25.0195 20.9676C27.5495 18.8008 27.1941 15.3553 25.4748 12.7969C25.3769 12.652 25.0988 12.1223 24.9363 12.1625ZM23.5186 26.3595C23.7673 22.4989 20.6469 20.5671 17.2652 19.9953C17.0713 20.2607 17.929 22.6859 18.1258 23.0981C19.1842 25.3119 21.0699 26.386 23.5186 26.3605V26.3595ZM26.449 26.3595C28.885 26.3928 30.7903 25.2962 31.8418 23.0971C32.0386 22.6849 32.8963 20.2607 32.7024 19.9943C29.3187 20.572 26.1964 22.4911 26.449 26.3585V26.3595ZM23.5186 34.1924C23.7878 30.4179 20.6283 28.3197 17.2642 27.9261C17.6186 31.306 19.7736 34.4694 23.5186 34.1924ZM32.7034 27.9261C29.3353 28.3285 26.1798 30.4189 26.449 34.1924C30.1862 34.4724 32.3519 31.2981 32.7034 27.9261Z" fill="black"/>
</g>
<defs>
<clipPath id="clip0_11_522">
<rect width="50" height="50" fill="white"/>
</clipPath>
</defs>
</svg>
